<mxfile host="app.diagrams.net" modified="2023-01-27T00:28:55.660Z" agent="5.0 (Windows NT 10.0; Win64; x64) AppleWebKit/537.36 (KHTML, like Gecko) Chrome/109.0.0.0 Safari/537.36" etag="JTiffgGfVey6H7Ol2kN6" version="20.8.11" type="github">
  <diagram name="페이지-1" id="MfcDLOL1zkmNDrYUlnOG">
    <mxGraphModel dx="1050" dy="581" grid="1" gridSize="10" guides="1" tooltips="1" connect="1" arrows="1" fold="1" page="1" pageScale="1" pageWidth="827" pageHeight="1169" math="0" shadow="0">
      <root>
        <mxCell id="0" />
        <mxCell id="1" parent="0" />
        <mxCell id="xan_GDzfN8Cvs-cxC0cv-5" style="edgeStyle=orthogonalEdgeStyle;rounded=0;orthogonalLoop=1;jettySize=auto;html=1;exitX=1;exitY=0.5;exitDx=0;exitDy=0;entryX=0;entryY=0.5;entryDx=0;entryDy=0;" edge="1" parent="1" source="xan_GDzfN8Cvs-cxC0cv-1" target="xan_GDzfN8Cvs-cxC0cv-2">
          <mxGeometry relative="1" as="geometry" />
        </mxCell>
        <mxCell id="xan_GDzfN8Cvs-cxC0cv-1" value="고객목록&lt;br&gt;(userList.jsp)" style="rounded=1;whiteSpace=wrap;html=1;absoluteArcSize=1;arcSize=14;strokeWidth=2;fillColor=#dae8fc;strokeColor=#6c8ebf;" vertex="1" parent="1">
          <mxGeometry x="40" y="80" width="120" height="40" as="geometry" />
        </mxCell>
        <mxCell id="xan_GDzfN8Cvs-cxC0cv-6" style="edgeStyle=orthogonalEdgeStyle;rounded=0;orthogonalLoop=1;jettySize=auto;html=1;exitX=1;exitY=0.5;exitDx=0;exitDy=0;entryX=0;entryY=0.5;entryDx=0;entryDy=0;" edge="1" parent="1" source="xan_GDzfN8Cvs-cxC0cv-2" target="xan_GDzfN8Cvs-cxC0cv-3">
          <mxGeometry relative="1" as="geometry" />
        </mxCell>
        <mxCell id="xan_GDzfN8Cvs-cxC0cv-2" value="고객목록&lt;br&gt;(userCheck.jsp)" style="rounded=1;whiteSpace=wrap;html=1;absoluteArcSize=1;arcSize=14;strokeWidth=2;fillColor=#dae8fc;strokeColor=#6c8ebf;" vertex="1" parent="1">
          <mxGeometry x="200" y="80" width="120" height="40" as="geometry" />
        </mxCell>
        <mxCell id="xan_GDzfN8Cvs-cxC0cv-7" style="edgeStyle=orthogonalEdgeStyle;rounded=0;orthogonalLoop=1;jettySize=auto;html=1;exitX=1;exitY=0.5;exitDx=0;exitDy=0;entryX=0;entryY=0.5;entryDx=0;entryDy=0;entryPerimeter=0;" edge="1" parent="1" source="xan_GDzfN8Cvs-cxC0cv-3" target="xan_GDzfN8Cvs-cxC0cv-4">
          <mxGeometry relative="1" as="geometry" />
        </mxCell>
        <mxCell id="xan_GDzfN8Cvs-cxC0cv-3" value="getList()&lt;br&gt;(userDAO.java)" style="rounded=1;whiteSpace=wrap;html=1;absoluteArcSize=1;arcSize=14;strokeWidth=2;fillColor=#dae8fc;strokeColor=#6c8ebf;" vertex="1" parent="1">
          <mxGeometry x="360" y="80" width="120" height="40" as="geometry" />
        </mxCell>
        <mxCell id="xan_GDzfN8Cvs-cxC0cv-4" value="DB&lt;br&gt;(Server)" style="strokeWidth=2;html=1;shape=mxgraph.flowchart.database;whiteSpace=wrap;fillColor=#f8cecc;strokeColor=#b85450;" vertex="1" parent="1">
          <mxGeometry x="560" y="40" width="80" height="120" as="geometry" />
        </mxCell>
        <mxCell id="xan_GDzfN8Cvs-cxC0cv-8" style="edgeStyle=orthogonalEdgeStyle;rounded=0;orthogonalLoop=1;jettySize=auto;html=1;exitX=1;exitY=0.5;exitDx=0;exitDy=0;entryX=0;entryY=0.5;entryDx=0;entryDy=0;" edge="1" source="xan_GDzfN8Cvs-cxC0cv-9" parent="1">
          <mxGeometry relative="1" as="geometry">
            <mxPoint x="200" y="260" as="targetPoint" />
          </mxGeometry>
        </mxCell>
        <mxCell id="xan_GDzfN8Cvs-cxC0cv-9" value="고객목록&lt;br&gt;(userList.jsp)" style="rounded=1;whiteSpace=wrap;html=1;absoluteArcSize=1;arcSize=14;strokeWidth=2;fillColor=#d5e8d4;strokeColor=#82b366;" vertex="1" parent="1">
          <mxGeometry x="40" y="240" width="120" height="40" as="geometry" />
        </mxCell>
        <mxCell id="xan_GDzfN8Cvs-cxC0cv-10" style="edgeStyle=orthogonalEdgeStyle;rounded=0;orthogonalLoop=1;jettySize=auto;html=1;exitX=1;exitY=0.5;exitDx=0;exitDy=0;entryX=0;entryY=0.5;entryDx=0;entryDy=0;" edge="1" target="xan_GDzfN8Cvs-cxC0cv-13" parent="1">
          <mxGeometry relative="1" as="geometry">
            <mxPoint x="320" y="260" as="sourcePoint" />
          </mxGeometry>
        </mxCell>
        <mxCell id="xan_GDzfN8Cvs-cxC0cv-12" style="edgeStyle=orthogonalEdgeStyle;rounded=0;orthogonalLoop=1;jettySize=auto;html=1;exitX=1;exitY=0.5;exitDx=0;exitDy=0;entryX=0;entryY=0.5;entryDx=0;entryDy=0;entryPerimeter=0;" edge="1" source="xan_GDzfN8Cvs-cxC0cv-13" target="xan_GDzfN8Cvs-cxC0cv-14" parent="1">
          <mxGeometry relative="1" as="geometry" />
        </mxCell>
        <mxCell id="xan_GDzfN8Cvs-cxC0cv-13" value="getList()&lt;br&gt;(userDAO.java)" style="rounded=1;whiteSpace=wrap;html=1;absoluteArcSize=1;arcSize=14;strokeWidth=2;fillColor=#d5e8d4;strokeColor=#82b366;" vertex="1" parent="1">
          <mxGeometry x="360" y="240" width="120" height="40" as="geometry" />
        </mxCell>
        <mxCell id="xan_GDzfN8Cvs-cxC0cv-14" value="DB&lt;br&gt;(Server)" style="strokeWidth=2;html=1;shape=mxgraph.flowchart.database;whiteSpace=wrap;fillColor=#f8cecc;strokeColor=#b85450;" vertex="1" parent="1">
          <mxGeometry x="560" y="200" width="80" height="120" as="geometry" />
        </mxCell>
        <mxCell id="xan_GDzfN8Cvs-cxC0cv-15" value="AJAX&lt;br&gt;(jsp, servlet)" style="text;html=1;strokeColor=#82b366;fillColor=#d5e8d4;align=center;verticalAlign=middle;whiteSpace=wrap;rounded=0;" vertex="1" parent="1">
          <mxGeometry x="215" y="245" width="90" height="30" as="geometry" />
        </mxCell>
      </root>
    </mxGraphModel>
  </diagram>
</mxfile>
